<svg
   viewBox="0 0 5.2916667 5.2916666"
   height="20"
   width="20">
  <g
     transform="translate(0,-291.70834)">
    <path
       id="rect10-7"
       d="m 4.51672,292.48329 c -0.1554707,-0.15547 -0.4057954,-0.15547 -0.5612659,0 l -1.3096208,1.30962 -1.3096207,-1.30962 c -0.1554706,-0.15547 -0.40579528,-0.15547 -0.56126596,0 -0.15547068,0.15547 -0.15547068,0.40579 0,0.56126 l 1.30962066,1.30962 -1.30962066,1.30963 c -0.15547068,0.15547 -0.15547068,0.40579 0,0.56126 0.15547068,0.15547 0.40579536,0.15547 0.56126596,0 l 1.3096207,-1.30962 1.3096208,1.30962 c 0.1554705,0.15547 0.4057952,0.15547 0.5612659,0 0.1554708,-0.15547 0.1554708,-0.40579 0,-0.56126 L 3.2070993,294.35417 4.51672,293.04455 c 0.1554708,-0.15547 0.1554708,-0.40579 0,-0.56126 z"
       style="fill:#000000" />
  </g>
</svg>
